name analog
datacolumns 19
datarows 27
range 0.463 0.47600000000000003
endheader
time	ground_force_vx	ground_force_vy	ground_force_vz	ground_force_px	ground_force_py	ground_force_pz	l_ground_force_vx	l_ground_force_vy	l_ground_force_vz	l_ground_force_px	l_ground_force_py	l_ground_force_pz	ground_torque_x	ground_torque_y	ground_torque_z	l_ground_torque_x	l_ground_torque_y	l_ground_torque_z
0.463	-0.0	-0.0	-0.0	11.41225242614746	46.111061096191406	-334.3245849609375	17.063060760498047	-26.639039993286133	-285.3772888183594	-0.0	-0.0	-0.0	-0.0	-0.0	-0.0	72121.2890625	3304.7783203125	2928.402099609375
0.4635	-0.0	-0.0	-0.0	12.489471435546877	46.64554977416992	-344.6600646972656	18.735280990600582	-27.457284927368164	-296.5489807128906	-0.0	-0.0	-0.0	-0.0	-0.0	-0.0	75391.4453125	3030.9892578125	3307.01806640625
0.464	-0.0	-0.0	-0.0	12.876312255859377	47.22759628295898	-354.94586181640625	19.681398391723636	-29.03421211242676	-307.60260009765625	-0.0	-0.0	-0.0	-0.0	-0.0	-0.0	78197.65625	2267.6376953125	3661.161376953125
0.4645	-0.0	-0.0	-0.0	12.941448211669922	48.02936553955078	-366.0827331542969	20.734655380249023	-30.606433868408203	-320.2190246582031	-0.0	-0.0	-0.0	-0.0	-0.0	-0.0	81514.9296875	1914.332763671875	3898.88134765625
0.465	-0.0	-0.0	-0.0	13.8095703125	48.99802780151367	-376.8653869628906	21.515216827392575	-32.83784866333008	-332.1361083984375	-0.0	-0.0	-0.0	-0.0	-0.0	-0.0	84978.03125	1665.7913818359375	4069.02734375
0.4655	-0.0	-0.0	-0.0	14.701523780822754	49.669281005859375	-391.1070861816406	22.023826599121094	-34.69792938232422	-346.8218994140625	-0.0	-0.0	-0.0	-0.0	-0.0	-0.0	88995.3984375	1174.128662109375	4220.98291015625
0.466	-0.0	-0.0	-0.0	16.028972625732422	50.33507537841797	-404.058837890625	22.976093292236328	-36.118255615234375	-359.1129455566406	-0.0	-0.0	-0.0	-0.0	-0.0	-0.0	92651.5390625	737.2198486328125	4516.1005859375
0.4665	-0.0	-0.0	-0.0	16.532485961914062	51.18437957763672	-415.7323303222656	23.709217071533203	-36.98345565795898	-372.3077087402344	-0.0	-0.0	-0.0	-0.0	-0.0	-0.0	95634.4375	517.6337890625	4686.54931640625
0.467	-0.0	-0.0	-0.0	16.842052459716797	52.12256622314453	-425.97265625	24.43741798400879	-37.6763801574707	-383.5172424316406	-0.0	-0.0	-0.0	-0.0	-0.0	-0.0	99356.2734375	67.8974380493164	4730.60302734375
0.4675	-0.0	-0.0	-0.0	17.504117965698242	53.609642028808594	-438.2398376464844	24.965124130249023	-38.69414138793945	-397.6283874511719	-0.0	-0.0	-0.0	-0.0	-0.0	-0.0	102605.1796875	131.24266052246094	4679.2373046875
0.468	-0.0	-0.0	-0.0	17.88456153869629	55.46246337890625	-449.5055236816406	25.124073028564453	-39.83308410644531	-411.7413330078125	-0.0	-0.0	-0.0	-0.0	-0.0	-0.0	106239.765625	112.95948791503906	4613.45556640625
0.4685	-0.0	-0.0	-0.0	18.59836196899414	56.91178894042969	-456.1238403320313	23.90961265563965	-40.32499313354492	-424.052734375	-0.0	-0.0	-0.0	-0.0	-0.0	-0.0	109252.7109375	397.9275512695313	4344.0966796875
0.46900000000000003	-0.0	-0.0	-0.0	18.55199241638184	59.34519958496094	-462.9268493652344	22.841102600097656	-41.29230880737305	-435.5742492675781	-0.0	-0.0	-0.0	-0.0	-0.0	-0.0	112330.796875	675.586181640625	3963.97607421875
0.46950000000000003	-0.0	-0.0	-0.0	18.291748046875	61.87609100341797	-466.3036193847656	21.494747161865234	-43.26190185546875	-446.21575927734375	-0.0	-0.0	-0.0	-0.0	-0.0	-0.0	114743.3671875	1140.14013671875	3406.72216796875
0.47000000000000003	-0.0	-0.0	-0.0	18.598676681518555	64.12760925292969	-470.5137939453125	20.268672943115234	-45.443241119384766	-454.33697509765625	-0.0	-0.0	-0.0	-0.0	-0.0	-0.0	116735.2734375	1180.2862548828125	2930.740234375
0.47050000000000003	-0.0	-0.0	-0.0	17.88201904296875	65.95649719238281	-472.359619140625	18.806686401367188	-47.32389068603516	-461.3322448730469	-0.0	-0.0	-0.0	-0.0	-0.0	-0.0	118213.234375	1465.1231689453125	2537.09814453125
0.47100000000000003	-0.0	-0.0	-0.0	17.393156051635742	66.75579071044922	-473.1585083007813	18.33726501464844	-49.28644561767578	-467.78460693359375	-0.0	-0.0	-0.0	-0.0	-0.0	-0.0	119299.3671875	1977.25634765625	2217.662841796875
0.47150000000000003	-0.0	-0.0	-0.0	16.81754493713379	67.64997863769531	-473.7746887207031	16.94375991821289	-51.07270812988281	-472.052978515625	-0.0	-0.0	-0.0	-0.0	-0.0	-0.0	120123.125	2293.437255859375	1978.91943359375
0.47200000000000003	-0.0	-0.0	-0.0	16.608781814575195	67.69575500488281	-469.2139892578125	17.344202041625977	-53.1494369506836	-475.0158996582031	-0.0	-0.0	-0.0	-0.0	-0.0	-0.0	120872.140625	2809.931396484375	1860.8779296875
0.47250000000000003	-0.0	-0.0	-0.0	14.96451473236084	67.57929229736328	-467.8729553222656	16.368268966674805	-54.89529800415039	-478.5167236328125	-0.0	-0.0	-0.0	-0.0	-0.0	-0.0	121433.0859375	3338.61572265625	1666.4886474609375
0.47300000000000003	-0.0	-0.0	-0.0	14.294538497924805	67.06774139404297	-463.81549072265625	15.809210777282717	-56.43954086303711	-480.1805725097656	-0.0	-0.0	-0.0	-0.0	-0.0	-0.0	121780.5	3703.116943359375	1383.53515625
0.47350000000000003	-0.0	-0.0	-0.0	12.153636932373049	65.7328109741211	-460.4566345214844	14.171099662780762	-58.16250991821289	-481.6652221679688	-0.0	-0.0	-0.0	-0.0	-0.0	-0.0	121843.265625	4411.11572265625	922.456298828125
0.47400000000000003	-0.0	-0.0	-0.0	11.37199878692627	64.50773620605469	-454.9732360839844	13.063070297241213	-59.63800430297852	-485.5810241699219	-0.0	-0.0	-0.0	-0.0	-0.0	-0.0	121782.5859375	5048.88037109375	387.3269958496094
0.47450000000000003	-0.0	-0.0	-0.0	10.059429168701172	63.01645278930664	-450.6526489257813	11.754842758178713	-60.94196319580078	-486.54541015625	-0.0	-0.0	-0.0	-0.0	-0.0	-0.0	121802.8125	5849.3203125	-66.44729614257812
0.47500000000000003	-0.0	-0.0	-0.0	9.03282070159912	61.85649871826172	-444.3896789550781	10.778907775878906	-61.75921249389648	-486.8940734863281	-0.0	-0.0	-0.0	-0.0	-0.0	-0.0	121403.859375	6247.49658203125	-475.1379699707031
0.47550000000000003	-0.0	-0.0	-0.0	8.2498197555542	60.63117218017578	-438.2071838378906	9.690954208374023	-62.774410247802734	-485.4971618652344	-0.0	-0.0	-0.0	-0.0	-0.0	-0.0	121078.90625	7247.3427734375	-929.2606811523438
0.47600000000000003	-0.0	-0.0	-0.0	6.712111949920654	59.71681594848633	-430.17095947265625	8.782367706298828	-63.87881851196289	-484.7958068847656	-0.0	-0.0	-0.0	-0.0	-0.0	-0.0	120182.6171875	7779.0107421875	-1256.080078125
